<svg version="1.1" xmlns="http://www.w3.org/2000/svg" viewBox="0 0 842.876984126983 517.4656659765333" width="842.876984126983" height="517.4656659765333">
  <!-- svg-source:excalidraw -->
  
  <defs>
    <style>
      @font-face {
        font-family: "Virgil";
        src: url("https://excalidraw.com/Virgil.woff2");
      }
      @font-face {
        font-family: "Cascadia";
        src: url("https://excalidraw.com/Cascadia.woff2");
      }
    </style>
  </defs>
  <rect x="0" y="0" width="842.876984126983" height="517.4656659765333" fill="#ffffff"></rect><g stroke-linecap="round" transform="translate(388.2103174603126 130.25724637681196) rotate(0 48.27053140096632 87.231884057971)"><path d="M-0.95 1.88 L96.97 -0.61 L96.49 174.96 L1.8 172.62" stroke="none" stroke-width="0" fill="#80eeff"></path><path d="M0.62 0.88 C34.7 1.24, 65.9 1.16, 95.31 1.19 M-0.05 0.96 C23.66 1.24, 48.51 0.77, 97.49 0.85 M95.4 1.52 C96.39 59.56, 95.8 122.22, 97.44 175.28 M95.9 0.87 C96.47 62.02, 96.66 122.16, 95.96 175.34 M94.72 174.4 C72.57 176.76, 49.38 173.9, -1 172.96 M95.9 174.47 C76.4 173.73, 53.88 174.75, 0.28 174.95 M-1.09 173.29 C-1.6 104.7, -1.99 33.78, -1.92 -0.18 M-0.85 174.49 C-0.6 110.69, -0.42 44.38, 0.48 -0.7" stroke="#000000" stroke-width="1" fill="none"></path></g><g stroke-linecap="round" transform="translate(667.4856797791588 130.5277777777792) rotate(0 42.02898550724581 86.39130434782692)"><path d="M1.88 0.43 L83.45 -0.05 L84.55 174.59 L-1.85 173.44" stroke="none" stroke-width="0" fill="#60bfa0"></path><path d="M0.88 1.42 C19.63 -0.92, 38.53 -1.49, 85.25 -1.06 M0.96 -0.17 C18.58 0.89, 36.03 0.99, 84.91 0.49 M85.57 -0.12 C84.17 50.82, 86.01 103.97, 84.87 173.83 M84.93 -0.8 C85.82 58.4, 84.52 117.45, 84.94 172.17 M83.99 171.9 C59.5 171.02, 30.34 171.02, -1.5 171.16 M84.06 173.76 C59.63 171.83, 36.63 172.53, 0.49 173.78 M-1.17 171.82 C-1.74 113.29, -2.96 54.59, -0.18 1.42 M0.03 172.36 C-0.19 119.02, -1.73 66.22, -0.7 -0.48" stroke="#000000" stroke-width="1" fill="none"></path></g><g stroke-linecap="round" transform="translate(497.6885783298776 133.61956521739376) rotate(0 19.304347826086882 85.56521739130585)"><path d="M1.42 0.65 C8.58 0.4, 17.25 1.02, 37.55 -1.74 M-0.17 0.66 C10.12 -0.18, 19.49 0.48, 39.09 -0.02 M38.49 -1.26 C36.91 65.5, 38.53 130.67, 39.65 171.96 M37.81 0.58 C36.9 62.3, 36.93 126.9, 38 171.26 M37.72 172.87 C23.82 170, 10.03 169.62, -1.62 170.84 M39.59 170.71 C27.86 171.73, 18.22 171.62, 1 171.5 M-0.96 171.08 C-0.42 101.8, -0.99 34.82, 1.42 0.19 M-0.43 172.12 C1.21 107.56, 1.94 44.38, -0.48 0.94" stroke="#000000" stroke-width="1" fill="none"></path></g><g stroke-linecap="round" transform="translate(548.123360938574 132.77898550724785) rotate(0 14.26086956521749 86.39130434782419)"><path d="M0.65 -0.66 C10.01 -1.43, 20.06 -1.27, 26.78 -1.2 M0.66 0.85 C8.6 1, 17.67 0.54, 28.5 0.79 M27.26 -0.72 C30.41 42.84, 30.65 84.91, 29.35 174.15 M29.1 -0.61 C29.31 40.16, 30.91 80.88, 28.65 173.35 M30.26 171.78 C21.44 171.66, 15.1 171.03, -0.29 172.14 M28.1 172.36 C22.38 173.35, 15.53 174.06, 0.36 173.76 M-0.05 171.43 C-0.26 128.48, 0.83 89.44, 0.19 1.37 M0.99 172.53 C-0.6 136.18, -0.75 98.15, 0.94 0.21" stroke="#000000" stroke-width="1" fill="none"></path></g><g stroke-linecap="round" transform="translate(588.4711870255333 134.46014492753784) rotate(0 11.753623188405982 86.66183574879233)"><path d="M-0.66 0.57 C6.85 1.11, 15.1 -1.81, 22.31 -0.1 M0.85 0.19 C10.26 0.69, 19.11 -0.17, 24.3 -0.57 M22.79 0.58 C24.31 65.95, 24.45 131.11, 24.87 172.04 M22.9 -0.72 C21.54 68, 21.51 134.37, 24.08 172.41 M22.51 172.2 C15.54 172.03, 7.94 173.24, -0.65 172.05 M23.09 173.92 C16.72 173.71, 10.37 173.59, 0.98 172.78 M-1.36 172.06 C-1.09 131.29, 2.26 89.81, 1.37 -1.71 M-0.25 172.77 C1.22 120.17, 0.26 69.35, 0.21 -0.31" stroke="#000000" stroke-width="1" fill="none"></path></g><g stroke-linecap="round" transform="translate(623.77553485162 134.46014492754148) rotate(0 15.130434782608745 85.2801932367156)"><path d="M0.57 -1.23 C12.42 -0.96, 20.72 -1.1, 30.16 1.92 M0.19 0.95 C9.41 0.23, 17.1 0.54, 29.69 0.76 M30.84 0.9 C30 51.2, 30.02 101.67, 28.98 172.31 M29.55 -0.58 C32.13 36.92, 31.38 75.63, 29.35 170.53 M29.14 169.56 C21.02 168.79, 14.5 169.76, -1.27 170.57 M30.85 170.85 C18.71 171.43, 6.55 171.41, -0.55 169.98 M-1.27 168.64 C-0.13 129.01, 0.24 85.97, -1.71 0.05 M-0.55 171.04 C-2.4 126.2, -0.76 83, -0.31 -0.03" stroke="#000000" stroke-width="1" fill="none"></path></g><g stroke-linecap="round"><g transform="translate(329.49798951457046 180.77163062062755) rotate(0 187.01555833372288 0.3790432723235426)"><path d="M0.34 -0.74 C62.77 -0.78, 312.82 -0.64, 374.97 -0.64 M-0.93 1.49 C61.36 1.63, 311.64 0.78, 374.39 0.56" stroke="#000000" stroke-width="1" fill="none"></path></g><g transform="translate(329.49798951457046 180.77163062062755) rotate(0 187.01555833372288 0.3790432723235426)"><path d="M345.01 12.11 C354.57 5.66, 363.8 3.85, 376.31 0.22 M347.19 11.77 C356.94 7.06, 367.56 2.71, 375.15 0.51" stroke="#000000" stroke-width="1" fill="none"></path></g><g transform="translate(329.49798951457046 180.77163062062755) rotate(0 187.01555833372288 0.3790432723235426)"><path d="M344.94 -8.41 C354.46 -8.04, 363.71 -3.02, 376.31 0.22 M347.12 -8.75 C357.07 -5.95, 367.72 -2.78, 375.15 0.51" stroke="#000000" stroke-width="1" fill="none"></path></g></g><g stroke-linecap="round"><g transform="translate(710.084402258866 185.17549426201367) rotate(0 0.4971105062154493 44.17528289184338)"><path d="M-0.74 0.71 C-0.78 15.21, -0.64 72.72, -0.64 87.32 M1.08 0.04 C1.47 14.62, 1.62 73.38, 1.74 88.31" stroke="#000000" stroke-width="1" fill="none"></path></g><g transform="translate(710.084402258866 185.17549426201367) rotate(0 0.4971105062154493 44.17528289184338)"><path d="M-7.48 59.11 C-7.55 66.56, -3.13 77.19, 1.4 89.63 M-7.82 60.66 C-4.63 71.7, -1.17 82.5, 1.68 87.68" stroke="#000000" stroke-width="1" fill="none"></path></g><g transform="translate(710.084402258866 185.17549426201367) rotate(0 0.4971105062154493 44.17528289184338)"><path d="M13.04 59 C7.49 66.35, 6.42 77.01, 1.4 89.63 M12.7 60.55 C7.99 71.83, 3.54 82.67, 1.68 87.68" stroke="#000000" stroke-width="1" fill="none"></path></g></g><g transform="translate(283.2103174603167 26.66666666666606) rotate(0 87.5 25)"><text x="87.5" y="18" font-family="Virgil, Segoe UI Emoji" font-size="20px" fill="#000000" text-anchor="middle" style="white-space: pre;" direction="ltr">StatusCodePages</text><text x="87.5" y="43" font-family="Virgil, Segoe UI Emoji" font-size="20px" fill="#000000" text-anchor="middle" style="white-space: pre;" direction="ltr">middleware</text></g><g transform="translate(706.876984126983 43.3333333333303) rotate(0 63 12.5)"><text x="63" y="18" font-family="Virgil, Segoe UI Emoji" font-size="20px" fill="#000000" text-anchor="middle" style="white-space: pre;" direction="ltr">Razor Pages</text></g><g transform="translate(526.0436507936502 10) rotate(0 50.5 25)"><text x="50.5" y="18" font-family="Virgil, Segoe UI Emoji" font-size="20px" fill="#000000" text-anchor="middle" style="white-space: pre;" direction="ltr">Other</text><text x="50.5" y="43" font-family="Virgil, Segoe UI Emoji" font-size="20px" fill="#000000" text-anchor="middle" style="white-space: pre;" direction="ltr">middleware</text></g><g stroke-linecap="round"><g transform="translate(811.5436507936499 80.66666666666424) rotate(0 -29.660155191135573 34.023235598876454)"><path d="M-0.21 0.94 C-0.58 5.72, 1.62 19.42, -1.16 27.62 C-3.94 35.82, -9.22 43.88, -16.89 50.12 C-24.57 56.35, -40.34 62.1, -47.23 65.03 C-54.11 67.95, -56.27 67.57, -58.19 67.66 M-1.78 0.39 C-2.36 5.4, 0.82 20.26, -1.84 28.78 C-4.51 37.3, -10.21 45.27, -17.78 51.5 C-25.35 57.72, -40.3 63.91, -47.27 66.14 C-54.24 68.38, -57.87 64.67, -59.59 64.91" stroke="#000000" stroke-width="1" fill="none"></path></g></g><g stroke-linecap="round"><g transform="translate(348.2103174603171 78.99999999999636) rotate(0 38.564852213414156 24.71452704417061)"><path d="M0.07 1.06 C0.77 4.8, -0.89 17.98, 3.61 22.18 C8.12 26.39, 17.51 25.06, 27.08 26.27 C36.66 27.48, 52.49 25.68, 61.06 29.44 C69.62 33.21, 75.48 45.47, 78.48 48.86 M-1.35 0.57 C-0.74 3.97, -1.83 15.86, 2.81 20.33 C7.46 24.8, 16.84 25.73, 26.54 27.39 C36.23 29.04, 52.56 26.71, 60.99 30.25 C69.41 33.8, 74.38 45.59, 77.09 48.65" stroke="#000000" stroke-width="1" fill="none"></path></g></g><g stroke-linecap="round"><g transform="translate(574.8769841269841 59.55555555555475) rotate(0 -0.47912690271618885 15.570054718727079)"><path d="M-1.19 1.19 C-1.31 6.26, -0.37 25.63, -0.26 30.37 M0.38 0.77 C0.04 5.48, -1.01 23.45, -1.34 28.44" stroke="#000000" stroke-width="1" fill="none"></path></g></g><g stroke-linecap="round"><g transform="translate(509.87698412698364 127.33333333333212) rotate(0 64.23680626812859 -16.70545825379031)"><path d="M-0.09 0.51 C0.71 -2.51, 0.91 -13.52, 4.43 -19.12 C7.96 -24.73, 14.07 -30.11, 21.07 -33.11 C28.07 -36.11, 37.44 -36.35, 46.43 -37.1 C55.42 -37.84, 65.76 -38.03, 75.03 -37.58 C84.3 -37.13, 93.76 -36.16, 102.07 -34.39 C110.38 -32.63, 120.2 -33.47, 124.87 -27 C129.54 -20.53, 129.2 -1.05, 130.07 4.41 M-1.6 -0.26 C-0.96 -3.52, -0.56 -15.55, 3.19 -20.78 C6.93 -26.02, 13.54 -29.1, 20.87 -31.67 C28.19 -34.25, 38.3 -35.22, 47.13 -36.22 C55.97 -37.22, 65 -37.91, 73.87 -37.67 C82.73 -37.44, 91.73 -36.91, 100.32 -34.82 C108.92 -32.73, 120.65 -31.58, 125.45 -25.15 C130.24 -18.72, 128.58 -1.24, 129.09 3.76" stroke="#000000" stroke-width="1" fill="none"></path></g></g><g stroke-linecap="round"><g transform="translate(706.4444444444446 283.1468253968269) rotate(0 -191.09448139661242 -0.15811216055863042)"><path d="M-0.36 -0.16 C-64.41 0.01, -319.51 0.87, -383.51 0.99 M1.64 -1.29 C-62.52 -1.43, -319.4 -0.57, -383.83 -0.62" stroke="#000000" stroke-width="1" fill="none"></path></g><g transform="translate(706.4444444444446 283.1468253968269) rotate(0 -191.09448139661242 -0.15811216055863042)"><path d="M-355.93 -8.94 C-364.24 -6.74, -375.24 -4.63, -382.61 -2.22 M-355.58 -11.72 C-364.89 -7.8, -372.36 -4.12, -384.17 -0.73" stroke="#000000" stroke-width="1" fill="none"></path></g><g transform="translate(706.4444444444446 283.1468253968269) rotate(0 -191.09448139661242 -0.15811216055863042)"><path d="M-355.89 11.58 C-364.21 6.33, -375.22 0.99, -382.61 -2.22 M-355.55 8.8 C-364.76 6.59, -372.24 4.14, -384.17 -0.73" stroke="#000000" stroke-width="1" fill="none"></path></g></g><g stroke-linecap="round" transform="translate(386.8969083663926 329.93909592822456) rotate(0 48.27053140096632 87.231884057971)"><path d="M-0.61 0.25 L96.35 1.61 L97.14 173.28 L-1.77 176.07" stroke="none" stroke-width="0" fill="#80eeff"></path><path d="M-0.46 -0.27 C36.2 -1.81, 69.05 -0.62, 96.13 -0.62 M-0.67 -0.79 C29.92 -0.18, 58.05 0.4, 97.27 0.82 M95.34 -1.51 C95.82 39.27, 98.92 76.05, 97.24 174.76 M96.61 -0.68 C96.42 58.19, 96.06 118.52, 95.8 174.01 M95.26 174.45 C63.63 174.6, 32.74 175.09, -0.46 173.83 M96.06 174.65 C63.78 174.47, 31.96 175.48, 0.94 174.06 M-0.21 174.06 C1.46 124.93, 2.03 78.49, -0.61 -1.28 M-0.23 174.12 C-1.63 121.81, -0.77 67.18, -0.47 -0.15" stroke="#000000" stroke-width="1" fill="none"></path></g><g stroke-linecap="round" transform="translate(666.1722706852413 330.2096273291936) rotate(0 42.02898550724581 86.39130434782692)"><path d="M0.25 -0.19 L85.67 0.6 L82.88 171.01 L1.61 171.3" stroke="none" stroke-width="0" fill="#60bfa0"></path><path d="M-0.27 1.1 C25.62 -0.95, 54.03 -0.22, 83.44 0.07 M-0.79 0.62 C24.74 0.03, 50.28 1.29, 84.88 -0.83 M82.55 -1.86 C85.44 64.37, 84.39 126.96, 84.36 173.52 M83.38 -0.6 C81.76 55.57, 83.28 112.31, 83.6 173.14 M84.05 172.26 C64.92 173.22, 45.39 171.79, -0.63 173.49 M84.24 172.42 C60.11 172.6, 37.22 173.32, -0.41 172.52 M-0.4 173.32 C-0.59 131.18, 0.77 86.75, -1.28 0.12 M-0.34 172.74 C0.92 106.01, -0.37 37.12, -0.15 -0.31" stroke="#000000" stroke-width="1" fill="none"></path></g><g stroke-linecap="round" transform="translate(496.3751692359576 333.30141476880453) rotate(0 19.304347826086882 85.56521739130585)"><path d="M1.1 -1.59 C11.29 -0.35, 24.46 -0.56, 38.68 -0.06 M0.62 -0.22 C10.85 0.66, 23.51 1.12, 37.78 0.65 M36.75 1.45 C38.82 51.02, 38.28 101.53, 39.35 171.67 M38.01 -0.61 C37.77 35.5, 37.99 68.72, 38.96 170.51 M38.08 172.01 C30.94 172.49, 20.87 170.5, 0.71 170.82 M38.25 171.08 C27.01 172.16, 15.93 170.79, -0.26 170.6 M0.54 169.39 C1.29 130.81, -0.43 89.96, 0.12 1.82 M-0.04 171.82 C1.22 121.42, -0.08 72.75, -0.31 0.12" stroke="#000000" stroke-width="1" fill="none"></path></g><g stroke-linecap="round" transform="translate(546.8099518446545 332.46083505866045) rotate(0 14.26086956521749 86.39130434782419)"><path d="M-1.59 -1.14 C7.5 -0.57, 15.18 -0.09, 28.46 -0.1 M-0.22 -0.54 C6.99 0.55, 14.08 -1.01, 29.18 -0.04 M29.97 1.24 C27.62 42.12, 27.52 83.58, 29.06 170.82 M27.91 -0.95 C28.26 52.3, 26.89 106.43, 27.9 172.02 M29.4 173.76 C23.14 172.25, 14.42 173.42, -0.31 172.9 M28.48 173 C22.29 173.62, 13.72 172.42, -0.53 172.12 M-1.74 173.89 C-0.03 122.16, -0.93 72.87, 1.82 -0.26 M0.69 173.6 C-0.01 124.5, 0.44 76.86, 0.12 -0.09" stroke="#000000" stroke-width="1" fill="none"></path></g><g stroke-linecap="round" transform="translate(587.1577779316133 334.1419944789486) rotate(0 11.753623188405982 86.66183574879233)"><path d="M-1.14 -0.4 C6.32 -0.43, 13.53 0.13, 23.41 -1.35 M-0.54 0.35 C5.92 0.87, 9.56 0.71, 23.46 -0.6 M24.75 0.4 C22.6 39.21, 22.64 78.36, 21.55 173.46 M22.55 0.91 C21.73 39.73, 22.82 79.75, 22.75 172.69 M24.48 174.68 C16.01 172.8, 10.14 173.11, 0.12 172.37 M23.72 174.29 C16.97 172.91, 8.29 172.78, -0.67 173.22 M1.11 172.95 C-1.08 123.53, -0.35 78.11, -0.26 -0.47 M0.82 172.73 C-0.4 127.05, -0.24 81.21, -0.09 0.81" stroke="#000000" stroke-width="1" fill="none"></path></g><g stroke-linecap="round" transform="translate(622.4621257577003 334.1419944789559) rotate(0 15.130434782608745 85.2801932367156)"><path d="M-0.4 -0.41 C10.13 0.24, 21.43 0.07, 28.91 -1.58 M0.35 0.72 C11.78 -0.67, 22.58 0.12, 29.66 -0.76 M30.67 0.7 C31.8 36.05, 32.04 68.67, 30.4 169.2 M31.17 -0.74 C28.77 41.32, 28.6 81.16, 29.62 170.55 M31.62 170.1 C21.35 171.42, 13.39 170.83, -0.95 170.93 M31.22 171.5 C21.87 170.37, 13.76 169.96, -0.11 170.36 M-0.38 169.95 C0.2 114.9, 3.31 58.75, -0.47 -0.68 M-0.59 170.09 C-1.33 119.79, -1.06 69.54, 0.81 0.3" stroke="#000000" stroke-width="1" fill="none"></path></g><g stroke-linecap="round"><g transform="translate(328.1845804206505 380.45348017204014) rotate(0 186.0272145110648 0.09050721262519801)"><path d="M-0.24 -0.25 C62.23 -0.12, 311.47 0.01, 373.88 0.04 M-1.83 -1.42 C60.54 -1.03, 310.2 1.16, 372.74 1.6" stroke="#000000" stroke-width="1" fill="none"></path></g><g transform="translate(328.1845804206505 380.45348017204014) rotate(0 186.0272145110648 0.09050721262519801)"><path d="M344.06 11.02 C350.82 9.42, 356.88 5.92, 371.16 2.85 M345.19 12.45 C351.54 9.4, 360.18 5.36, 371.99 0.67" stroke="#000000" stroke-width="1" fill="none"></path></g><g transform="translate(328.1845804206505 380.45348017204014) rotate(0 186.0272145110648 0.09050721262519801)"><path d="M344.22 -9.5 C350.83 -6.58, 356.86 -5.56, 371.16 2.85 M345.36 -8.07 C351.55 -5.42, 360.15 -3.76, 371.99 0.67" stroke="#000000" stroke-width="1" fill="none"></path></g></g><g stroke-linecap="round"><g transform="translate(708.7709931649485 384.85734381342627) rotate(0 0.4710044632015524 44.116200842116086)"><path d="M-0.25 -0.37 C-0.12 14.39, 0.01 73.67, 0.04 88.32 M1.83 -1.61 C1.85 13.37, -0.44 74.83, -0.88 89.84" stroke="#000000" stroke-width="1" fill="none"></path></g><g transform="translate(708.7709931649485 384.85734381342627) rotate(0 0.4710044632015524 44.116200842116086)"><path d="M-10.81 61.39 C-8.05 68.17, -7.08 73.61, 0.36 89.4 M-9.38 60.49 C-7.15 68.23, -6.12 74.53, -1.81 90.57" stroke="#000000" stroke-width="1" fill="none"></path></g><g transform="translate(708.7709931649485 384.85734381342627) rotate(0 0.4710044632015524 44.116200842116086)"><path d="M9.7 62.08 C7.48 68.65, 3.47 73.92, 0.36 89.4 M11.13 61.18 C8.31 68.89, 4.3 75.03, -1.81 90.57" stroke="#000000" stroke-width="1" fill="none"></path></g></g><g stroke-linecap="round"><g transform="translate(705.1310353505266 482.8286749482395) rotate(0 -192.0303647469848 0.23221143876162387)"><path d="M-0.37 0.04 C-64.45 0.07, -320.54 0.11, -384.73 -0.06 M1.64 -0.98 C-62.58 -0.73, -321.59 1.3, -385.7 1.45" stroke="#000000" stroke-width="1" fill="none"></path></g><g transform="translate(705.1310353505266 482.8286749482395) rotate(0 -192.0303647469848 0.23221143876162387)"><path d="M-357.49 -9.03 C-365.56 -7.49, -374.91 -1.98, -386.14 0.37 M-358.4 -8.31 C-366.97 -5.85, -377.12 -2.68, -384.97 2.07" stroke="#000000" stroke-width="1" fill="none"></path></g><g transform="translate(705.1310353505266 482.8286749482395) rotate(0 -192.0303647469848 0.23221143876162387)"><path d="M-357.38 11.49 C-365.44 7.29, -374.82 7.06, -386.14 0.37 M-358.28 12.21 C-367.04 7.79, -377.23 4.07, -384.97 2.07" stroke="#000000" stroke-width="1" fill="none"></path></g></g><g stroke-linecap="round"><g transform="translate(313.1111111111113 285.3690476190459) rotate(0 1.1638417125406022 48.67171750212037)"><path d="M1.16 -0.52 C1.51 15.73, 1.98 80.08, 2.02 96.44 M0.31 1.83 C0.59 18.34, 1.46 82.2, 1.55 97.86" stroke="#000000" stroke-width="1" fill="none"></path></g><g transform="translate(313.1111111111113 285.3690476190459) rotate(0 1.1638417125406022 48.67171750212037)"><path d="M-9.86 71.29 C-6.52 78.43, -1.45 85.21, 2.32 98.29 M-8.45 70.47 C-6.88 76.93, -3.18 86.74, 1.99 96.87" stroke="#000000" stroke-width="1" fill="none"></path></g><g transform="translate(313.1111111111113 285.3690476190459) rotate(0 1.1638417125406022 48.67171750212037)"><path d="M10.66 71.08 C7.98 78.47, 7.05 85.32, 2.32 98.29 M12.07 70.26 C7.73 76.91, 5.51 86.78, 1.99 96.87" stroke="#000000" stroke-width="1" fill="none"></path></g></g><g stroke-linecap="round"><g transform="translate(723.111111111112 226.4801587301572) rotate(0 41.66996928864364 1.1036743805043443)"><path d="M0.26 -0.67 C6.39 0.83, 24.94 9.51, 37.74 10.19 C50.53 10.86, 69.26 6.67, 77.01 3.37 C84.77 0.07, 82.96 -7.45, 84.26 -9.61 M-1.07 1.59 C4.82 3.82, 23.85 11.4, 36.77 11.82 C49.68 12.24, 68.49 7.48, 76.43 4.12 C84.37 0.77, 83.23 -6.12, 84.41 -8.31" stroke="#000000" stroke-width="1" fill="none"></path></g></g><g transform="translate(788.0555555555554 194.14682539682508) rotate(0 19.5 12.5)"><text x="19.5" y="18" font-family="Virgil, Segoe UI Emoji" font-size="20px" fill="#000000" text-anchor="middle" style="white-space: pre;" direction="ltr">404</text></g><g transform="translate(300.2222222222226 218.03571428571558) rotate(0 21 12.5)"><text x="21" y="18" font-family="Virgil, Segoe UI Emoji" font-size="20px" fill="#000000" text-anchor="middle" style="white-space: pre;" direction="ltr">302</text></g><g stroke-linecap="round"><g transform="translate(349.7777777777778 229.81349206349114) rotate(0 36.017693676815725 26.31925134240828)"><path d="M0.08 -0.46 C6.65 0.62, 27.97 2.85, 38.8 7.57 C49.63 12.28, 59.3 20, 65.06 27.8 C70.82 35.61, 71.95 50.17, 73.37 54.39 M-1.33 -1.75 C5.64 -0.49, 29.99 1.28, 40.88 5.91 C51.78 10.55, 58.67 18.31, 64.03 26.05 C69.39 33.8, 71.17 47.83, 73.05 52.39" stroke="#000000" stroke-width="1" fill="none"></path></g></g><g transform="translate(289.6666666666674 426.7023809523798) rotate(0 21 12.5)"><text x="21" y="18" font-family="Virgil, Segoe UI Emoji" font-size="20px" fill="#000000" text-anchor="middle" style="white-space: pre;" direction="ltr">200</text></g><g stroke-linecap="round"><g transform="translate(335.00000000000045 439.8134920634893) rotate(0 41.7049624927829 20.526081579122547)"><path d="M0.1 1.01 C4.91 1.64, 18.52 0.88, 29.61 3.03 C40.71 5.17, 57.52 7.6, 66.7 13.88 C75.88 20.16, 81.39 36.2, 84.71 40.73 M-1.3 0.5 C3.25 0.86, 16.74 -0.56, 28.46 1.32 C40.19 3.21, 59.69 5.62, 69.03 11.82 C78.37 18.03, 81.74 34.13, 84.51 38.56" stroke="#000000" stroke-width="1" fill="none"></path></g></g><g transform="translate(63.5 150.2579365079364) rotate(0 91.5 25)"><text x="91.5" y="18" font-family="Virgil, Segoe UI Emoji" font-size="20px" fill="#000000" text-anchor="middle" style="white-space: pre;" direction="ltr">Initial request for</text><text x="91.5" y="43" font-family="Virgil, Segoe UI Emoji" font-size="20px" fill="#000000" text-anchor="middle" style="white-space: pre;" direction="ltr">non-existent page</text></g><g transform="translate(10 291.2579365079364) rotate(0 133 37.5)"><text x="133" y="18" font-family="Virgil, Segoe UI Emoji" font-size="20px" fill="#000000" text-anchor="middle" style="white-space: pre;" direction="ltr">StatusCodePages returns </text><text x="133" y="43" font-family="Virgil, Segoe UI Emoji" font-size="20px" fill="#000000" text-anchor="middle" style="white-space: pre;" direction="ltr">302 with location of </text><text x="133" y="68" font-family="Virgil, Segoe UI Emoji" font-size="20px" fill="#000000" text-anchor="middle" style="white-space: pre;" direction="ltr">custom error page</text></g><g transform="translate(33.5 447.2579365079364) rotate(0 103.5 25)"><text x="103.5" y="18" font-family="Virgil, Segoe UI Emoji" font-size="20px" fill="#000000" text-anchor="middle" style="white-space: pre;" direction="ltr">Custom error page </text><text x="103.5" y="43" font-family="Virgil, Segoe UI Emoji" font-size="20px" fill="#000000" text-anchor="middle" style="white-space: pre;" direction="ltr">is returned with 200</text></g></svg>