<svg version="1.1" xmlns="http://www.w3.org/2000/svg" viewBox="0 0 767.8769841269834 512.721014492753" width="767.8769841269834" height="512.721014492753">
  <!-- svg-source:excalidraw -->
  
  <defs>
    <style>
      @font-face {
        font-family: "Virgil";
        src: url("https://excalidraw.com/Virgil.woff2");
      }
      @font-face {
        font-family: "Cascadia";
        src: url("https://excalidraw.com/Cascadia.woff2");
      }
    </style>
  </defs>
  <rect x="0" y="0" width="767.8769841269834" height="512.721014492753" fill="#ffffff"></rect><g stroke-linecap="round" transform="translate(313.2103174603126 130.25724637681196) rotate(0 48.27053140096632 186.23188405797055)"><path d="M1.38 0.3 L98.06 1.84 L98.19 372.04 L-0.57 370.73" stroke="none" stroke-width="0" fill="#80eeff"></path><path d="M-1.67 -0.78 C33.8 1.41, 72.73 -0.57, 97.53 0.29 M0.71 0.25 C22.35 0.36, 44.42 0.46, 95.55 -0.5 M96.97 0.75 C93.88 96.54, 93.92 193.2, 96.89 372.08 M96.75 0.3 C93.89 139.17, 94.31 278.47, 96.01 372.26 M95.89 371.13 C63.02 374.13, 27.48 371.76, 1.58 370.62 M97.01 371.53 C61.27 371.79, 24.56 371.96, 0.79 372.61 M-1.08 371.76 C0.63 283.71, 0.99 194.4, -0.51 0.21 M-0.1 372.44 C1.46 285.65, 1.23 199.29, -0.48 0.09" stroke="#000000" stroke-width="1" fill="none"></path></g><g stroke-linecap="round" transform="translate(592.485679779159 130.527777777781) rotate(0 42.02898550724592 183.39130434782646)"><path d="M0.3 1.51 L85.9 1.65 L83.64 366.22 L-1.74 367.27" stroke="none" stroke-width="0" fill="#60bfa0"></path><path d="M-0.78 -1.8 C34.1 2.23, 64.47 1.69, 84.34 -1.38 M0.25 0.06 C20.64 -0.74, 41.66 -1.59, 83.56 -0.41 M84.82 -0.43 C82.9 73.67, 83.19 148.47, 83.67 367.7 M84.36 -0.38 C84.55 73.49, 84.53 146.34, 83.85 367.16 M82.72 368.07 C51.63 367.06, 15.67 368.09, -1.84 368.23 M83.13 367.47 C61.67 367.11, 39.48 367.96, 0.15 366.16 M-0.71 366.3 C0.02 274.33, -0.63 181.59, 0.21 -0.84 M-0.02 366.89 C1.25 278.32, 1.54 189.62, 0.09 0.43" stroke="#000000" stroke-width="1" fill="none"></path></g><g stroke-linecap="round" transform="translate(422.6885783298776 133.61956521739194) rotate(0 18.304347826086882 184.0652173913054)"><path d="M-1.8 1.77 C13.86 -0.07, 25.66 0.43, 35.22 -1.02 M0.06 -0.29 C8.41 -0.28, 16.1 -0.59, 36.2 -0.98 M36.18 0.16 C37.02 89.53, 37.76 177.77, 37.53 366.89 M36.23 -0.14 C37.44 120.57, 36.85 241.27, 36.98 368.75 M37.9 369.3 C24.29 366.68, 12.46 366.04, 1.45 367.45 M37.3 368.1 C27.98 367.92, 20.27 367.94, -0.62 367.65 M-0.48 368.05 C1.9 258.52, 1.5 150.57, -0.84 -0.73 M0.11 367.96 C0.26 280.71, -0.09 193.14, 0.43 0.09" stroke="#000000" stroke-width="1" fill="none"></path></g><g stroke-linecap="round" transform="translate(468.1233609385745 133.77898550724785) rotate(0 15.26086956521749 183.39130434782328)"><path d="M1.77 1.52 C6.39 1.26, 13.49 -1.11, 29.5 -1.33 M-0.29 -0.14 C11.14 -1.01, 22.14 -0.43, 29.54 -0.58 M30.69 -0.38 C32.37 123.23, 31.53 246.66, 29.28 367.13 M30.38 0.05 C31.48 121.99, 31.44 245.45, 31.14 367.1 M31.69 367.33 C21.15 368.56, 12.35 368.43, -0.68 365.46 M30.49 366.72 C20.07 367.78, 9.5 366.37, -0.48 366.74 M-0.08 366.67 C0.58 288.63, 1.52 210.68, -0.74 -0.77 M-0.17 366.66 C0.2 262.5, 0.18 159.61, 0.09 0.47" stroke="#000000" stroke-width="1" fill="none"></path></g><g stroke-linecap="round" transform="translate(509.471187025533 133.46014492753602) rotate(0 12.753623188406095 182.66183574879187)"><path d="M1.52 -0.21 C7.64 0.06, 11.93 -1.25, 24.18 1.42 M-0.14 -0.18 C7.29 -0.43, 16.16 -0.91, 24.93 0.35 M25.12 0.46 C25.07 131.56, 25.64 262.67, 25.86 365.75 M25.56 -0.17 C23.58 127.39, 24.5 255.82, 25.83 365.12 M26.06 364.12 C21.14 363.63, 15.06 364.79, -1.32 366.26 M25.44 365.46 C21.01 365.46, 14.33 364.83, -0.04 364.44 M-0.12 364.6 C0.36 276.82, 0.04 187.15, -0.78 -0.21 M-0.12 365.44 C-0.89 257.19, 0.03 148.96, 0.47 0.58" stroke="#000000" stroke-width="1" fill="none"></path></g><g stroke-linecap="round" transform="translate(547.7755348516203 134.4601449275433) rotate(0 17.130434782608745 181.28019323671515)"><path d="M-0.21 0.99 C7.48 -1.64, 13.37 -1.59, 35.68 0.5 M-0.18 -0.99 C10 -0.36, 20.01 -0.53, 34.61 0.61 M34.72 0.36 C34.16 97.06, 33.31 192.61, 34.69 363.18 M34.09 -0.55 C33.52 87.12, 34.36 173.8, 34.06 362.14 M33.06 364.14 C19.93 364.1, 8.61 361.33, 0.94 360.7 M34.39 363.35 C21.76 361.92, 8.49 362.5, -0.88 361.99 M-0.73 362.03 C0.36 267.02, -0.6 172.4, -0.21 -0.05 M0.12 362.07 C0.71 247.78, 0.71 132.61, 0.58 0.52" stroke="#000000" stroke-width="1" fill="none"></path></g><g stroke-linecap="round"><g transform="translate(254.4979895145707 180.77163062062755) rotate(0 186.3853368297498 -0.11920657530390599)"><path d="M-0.13 0.59 C62.1 0.3, 312.13 -0.6, 374.42 -0.83 M-1.65 -0.14 C60.34 -0.38, 311.2 0.23, 373.57 0.27" stroke="#000000" stroke-width="1" fill="none"></path></g><g transform="translate(254.4979895145707 180.77163062062755) rotate(0 186.3853368297498 -0.11920657530390599)"><path d="M346.35 10.77 C354.85 5.53, 365.86 4, 374.06 0.4 M344.36 9.99 C352.62 6.79, 360.1 5.34, 374.18 -0.08" stroke="#000000" stroke-width="1" fill="none"></path></g><g transform="translate(254.4979895145707 180.77163062062755) rotate(0 186.3853368297498 -0.11920657530390599)"><path d="M346.38 -9.75 C355.03 -7.02, 366.02 -0.58, 374.06 0.4 M344.4 -10.53 C352.61 -8.17, 360.09 -4.04, 374.18 -0.08" stroke="#000000" stroke-width="1" fill="none"></path></g></g><g stroke-linecap="round"><g transform="translate(635.0844022588665 185.17549426201367) rotate(0 0.307817625584903 44.089258619401335)"><path d="M0.59 0.17 C0.3 14.82, -0.6 72.91, -0.83 87.75 M-0.56 -0.78 C-0.55 14.02, 1.07 74.28, 1.45 88.96" stroke="#000000" stroke-width="1" fill="none"></path></g><g transform="translate(635.0844022588665 185.17549426201367) rotate(0 0.307817625584903 44.089258619401335)"><path d="M-9.25 59.66 C-6.46 70.16, 0.12 82.5, 1.57 88.39 M-10.04 60.63 C-7.43 68.55, -2.96 77.73, 1.1 89.09" stroke="#000000" stroke-width="1" fill="none"></path></g><g transform="translate(635.0844022588665 185.17549426201367) rotate(0 0.307817625584903 44.089258619401335)"><path d="M11.26 59.13 C6.34 69.94, 5.19 82.47, 1.57 88.39 M10.48 60.1 C7.22 67.97, 5.83 77.29, 1.1 89.09" stroke="#000000" stroke-width="1" fill="none"></path></g></g><g transform="translate(208.21031746031713 26.66666666666424) rotate(0 87.5 25)"><text x="87.5" y="18" font-family="Virgil, Segoe UI Emoji" font-size="20px" fill="#000000" text-anchor="middle" style="white-space: pre;" direction="ltr">StatusCodePages</text><text x="87.5" y="43" font-family="Virgil, Segoe UI Emoji" font-size="20px" fill="#000000" text-anchor="middle" style="white-space: pre;" direction="ltr">middleware</text></g><g transform="translate(631.8769841269834 43.33333333332848) rotate(0 63 12.5)"><text x="63" y="18" font-family="Virgil, Segoe UI Emoji" font-size="20px" fill="#000000" text-anchor="middle" style="white-space: pre;" direction="ltr">Razor Pages</text></g><g transform="translate(451.04365079365016 10) rotate(0 50.5 25)"><text x="50.5" y="18" font-family="Virgil, Segoe UI Emoji" font-size="20px" fill="#000000" text-anchor="middle" style="white-space: pre;" direction="ltr">Other</text><text x="50.5" y="43" font-family="Virgil, Segoe UI Emoji" font-size="20px" fill="#000000" text-anchor="middle" style="white-space: pre;" direction="ltr">middleware</text></g><g stroke-linecap="round"><g transform="translate(736.5436507936504 80.66666666666424) rotate(0 -28.973763919241264 33.27729187114528)"><path d="M-0.8 0.85 C-0.89 5.69, 1.33 20.25, -1.37 28.41 C-4.07 36.57, -9.42 43.93, -17.01 49.83 C-24.6 55.73, -39.9 61.08, -46.89 63.81 C-53.87 66.53, -56.83 65.81, -58.93 66.17 M0.98 0.25 C0.83 5.35, 1 21.52, -2.16 29.99 C-5.32 38.46, -10.52 45.34, -17.96 51.06 C-25.39 56.77, -40.24 61.74, -46.76 64.28 C-53.27 66.82, -55.06 65.65, -57.06 66.3" stroke="#000000" stroke-width="1" fill="none"></path></g></g><g stroke-linecap="round"><g transform="translate(273.2103174603171 78.99999999999636) rotate(0 39.7699071680787 24.116687373095374)"><path d="M0.85 0.3 C1.52 3.99, -0.86 16.97, 3.41 21.32 C7.68 25.68, 16.99 25.1, 26.5 26.45 C36.01 27.79, 51.92 25.67, 60.47 29.4 C69.03 33.13, 74.98 45.32, 77.84 48.82 M-0.16 -0.59 C0.41 3.34, -1.8 17.97, 2.5 22.68 C6.8 27.39, 16.04 26.4, 25.64 27.65 C35.24 28.9, 51.07 26.7, 60.09 30.19 C69.11 33.68, 76.67 45.36, 79.77 48.6" stroke="#000000" stroke-width="1" fill="none"></path></g></g><g stroke-linecap="round"><g transform="translate(499.8769841269841 59.55555555555475) rotate(0 -0.5846172310324391 15.174591225469158)"><path d="M0.3 0.08 C0.37 4.91, -0.26 25.04, -0.34 29.83 M-1 -0.93 C-1.05 4.02, -1.45 26.21, -1.47 31.28" stroke="#000000" stroke-width="1" fill="none"></path></g></g><g stroke-linecap="round"><g transform="translate(434.8769841269841 127.33333333333212) rotate(0 64.54840872620707 -16.278683205881862)"><path d="M0.08 -0.34 C0.74 -3.76, 1.71 -14.62, 4.83 -20.22 C7.95 -25.82, 12.1 -30.99, 18.81 -33.93 C25.51 -36.87, 35.9 -37.46, 45.06 -37.84 C54.22 -38.23, 64.28 -36.56, 73.75 -36.25 C83.21 -35.94, 93.28 -37.6, 101.85 -35.97 C110.41 -34.35, 120.39 -33.37, 125.16 -26.48 C129.92 -19.6, 129.7 -0.05, 130.44 5.34 M-1.34 -1.57 C-0.93 -4.83, 0.06 -13.57, 3.79 -18.8 C7.53 -24.03, 14.2 -29.83, 21.07 -32.93 C27.95 -36.02, 35.96 -36.91, 45.05 -37.36 C54.13 -37.81, 66.42 -35.66, 75.57 -35.64 C84.73 -35.61, 91.6 -39.11, 99.98 -37.23 C108.37 -35.35, 120.94 -31.43, 125.88 -24.36 C130.83 -17.29, 128.72 0.29, 129.64 5.18" stroke="#000000" stroke-width="1" fill="none"></path></g></g><g stroke-linecap="round"><g transform="translate(631.4444444444446 285.1468253968269) rotate(0 -131.79353657783724 -0.7417663095502576)"><path d="M-0.34 -0.17 C-44.43 -0.38, -220.16 -1.14, -264.2 -1.19 M1.68 -1.3 C-42.61 -1.42, -220.71 -0.59, -265.26 -0.28" stroke="#000000" stroke-width="1" fill="none"></path></g><g transform="translate(631.4444444444446 285.1468253968269) rotate(0 -131.79353657783724 -0.7417663095502576)"><path d="M-237.41 -11.07 C-248.26 -8.39, -256.23 -5.97, -266.43 0.42 M-237.44 -10.33 C-247.04 -7.21, -256.75 -4.13, -264.99 0.06" stroke="#000000" stroke-width="1" fill="none"></path></g><g transform="translate(631.4444444444446 285.1468253968269) rotate(0 -131.79353657783724 -0.7417663095502576)"><path d="M-237.3 9.45 C-248.19 5.46, -256.21 1.21, -266.43 0.42 M-237.33 10.19 C-246.9 5.89, -256.65 1.56, -264.99 0.06" stroke="#000000" stroke-width="1" fill="none"></path></g></g><g stroke-linecap="round"><g transform="translate(363.79205985734643 380.45348017204014) rotate(0 132.3413074439527 0.24056486817516998)"><path d="M-0.7 0.42 C43.62 0.55, 221.13 -0.29, 265.38 -0.42 M1.14 -0.41 C45.4 -0.01, 220.99 0.71, 264.82 0.9" stroke="#000000" stroke-width="1" fill="none"></path></g><g transform="translate(363.79205985734643 380.45348017204014) rotate(0 132.3413074439527 0.24056486817516998)"><path d="M237.28 12.26 C243.29 8.84, 250.68 6.69, 265.39 0.27 M236.92 11.53 C246.64 6.93, 257.89 3.1, 263.94 0.57" stroke="#000000" stroke-width="1" fill="none"></path></g><g transform="translate(363.79205985734643 380.45348017204014) rotate(0 132.3413074439527 0.24056486817516998)"><path d="M237.37 -8.26 C243.15 -6.37, 250.52 -3.21, 265.39 0.27 M237.01 -8.99 C246.49 -5.91, 257.7 -2.07, 263.94 0.57" stroke="#000000" stroke-width="1" fill="none"></path></g></g><g stroke-linecap="round"><g transform="translate(633.770993164949 384.85734381342627) rotate(0 -0.5776221332403111 45.106271325204034)"><path d="M0.42 0.73 C0.55 15.6, -0.29 73.84, -0.42 88.52 M-0.82 0.07 C-0.78 15.22, -1.5 75.7, -1.59 90.14" stroke="#000000" stroke-width="1" fill="none"></path></g><g transform="translate(633.770993164949 384.85734381342627) rotate(0 -0.5776221332403111 45.106271325204034)"><path d="M-10.36 61.16 C-9.47 66.91, -6.98 73.81, -2.22 91.62 M-11.1 61.25 C-9.74 67.56, -7.78 72.27, -1.92 90.74" stroke="#000000" stroke-width="1" fill="none"></path></g><g transform="translate(633.770993164949 384.85734381342627) rotate(0 -0.5776221332403111 45.106271325204034)"><path d="M10.16 61.35 C6.91 67.13, 5.25 74, -2.22 91.62 M9.42 61.43 C6.67 67.78, 4.52 72.46, -1.92 90.74" stroke="#000000" stroke-width="1" fill="none"></path></g></g><g stroke-linecap="round"><g transform="translate(630.1310353505271 482.8286749482395) rotate(0 -192.33352969272778 -0.35549939657539653)"><path d="M0.73 -0.42 C-63.24 -0.55, -320.37 -0.5, -384.54 -0.37 M-0.34 -1.68 C-64.4 -1.68, -321.33 0.99, -385.4 0.97" stroke="#000000" stroke-width="1" fill="none"></path></g><g transform="translate(630.1310353505271 482.8286749482395) rotate(0 -192.33352969272778 -0.35549939657539653)"><path d="M-357.97 -9.18 C-364.66 -6.02, -370.27 -4.86, -383.92 -1.02 M-357.88 -9.68 C-366.38 -6.17, -376.56 -2.81, -384.8 1.97" stroke="#000000" stroke-width="1" fill="none"></path></g><g transform="translate(630.1310353505271 482.8286749482395) rotate(0 -192.33352969272778 -0.35549939657539653)"><path d="M-357.85 11.34 C-364.64 9.53, -370.29 5.73, -383.92 -1.02 M-357.76 10.84 C-366.37 7.63, -376.59 4.25, -384.8 1.97" stroke="#000000" stroke-width="1" fill="none"></path></g></g><g stroke-linecap="round"><g transform="translate(357.1111111111113 287.3690476190459) rotate(0 0.572282877895077 48.1507209060519)"><path d="M-0.42 0.16 C-0.36 16.22, 0.43 81.08, 0.74 97.11 M1.56 -0.8 C1.39 14.83, -0.29 78.85, -0.4 95.21" stroke="#000000" stroke-width="1" fill="none"></path></g><g transform="translate(357.1111111111113 287.3690476190459) rotate(0 0.572282877895077 48.1507209060519)"><path d="M-9.9 66.23 C-5.99 76.96, -4.08 87.37, -2.4 95.77 M-10.4 66.93 C-7.04 75.51, -3.84 86.47, 0.59 95.73" stroke="#000000" stroke-width="1" fill="none"></path></g><g transform="translate(357.1111111111113 287.3690476190459) rotate(0 0.572282877895077 48.1507209060519)"><path d="M10.62 66.59 C7.66 77.13, 2.69 87.42, -2.4 95.77 M10.12 67.29 C6.63 75.63, 2.97 86.46, 0.59 95.73" stroke="#000000" stroke-width="1" fill="none"></path></g></g><g stroke-linecap="round"><g transform="translate(648.1111111111125 226.48015873015538) rotate(0 41.01458704996594 0.43016440652081656)"><path d="M0.16 -0.37 C6.41 1.42, 25.53 9.39, 38.22 10.34 C50.91 11.29, 68.78 8.67, 76.29 5.33 C83.79 2, 81.82 -7.21, 83.25 -9.66 M-1.22 -1.61 C4.85 -0.16, 24.74 7.56, 37.5 8.4 C50.26 9.25, 67.76 6.25, 75.32 3.46 C82.88 0.66, 81.49 -6.36, 82.87 -8.38" stroke="#000000" stroke-width="1" fill="none"></path></g></g><g transform="translate(713.0555555555559 194.1468253968269) rotate(0 19.5 12.5)"><text x="19.5" y="18" font-family="Virgil, Segoe UI Emoji" font-size="20px" fill="#000000" text-anchor="middle" style="white-space: pre;" direction="ltr">404</text></g><g transform="translate(46.5 156.2579365079364) rotate(0 91.5 25)"><text x="91.5" y="18" font-family="Virgil, Segoe UI Emoji" font-size="20px" fill="#000000" text-anchor="middle" style="white-space: pre;" direction="ltr">Initial request for</text><text x="91.5" y="43" font-family="Virgil, Segoe UI Emoji" font-size="20px" fill="#000000" text-anchor="middle" style="white-space: pre;" direction="ltr">non-existent page</text></g><g transform="translate(10 276.2579365079364) rotate(0 126 50)"><text x="126" y="18" font-family="Virgil, Segoe UI Emoji" font-size="20px" fill="#000000" text-anchor="middle" style="white-space: pre;" direction="ltr">StatusCodePages </text><text x="126" y="43" font-family="Virgil, Segoe UI Emoji" font-size="20px" fill="#000000" text-anchor="middle" style="white-space: pre;" direction="ltr">re-executes the request </text><text x="126" y="68" font-family="Virgil, Segoe UI Emoji" font-size="20px" fill="#000000" text-anchor="middle" style="white-space: pre;" direction="ltr">using the custom</text><text x="126" y="93" font-family="Virgil, Segoe UI Emoji" font-size="20px" fill="#000000" text-anchor="middle" style="white-space: pre;" direction="ltr">error page</text></g><g transform="translate(20.5 452.2579365079364) rotate(0 102.5 25)"><text x="102.5" y="18" font-family="Virgil, Segoe UI Emoji" font-size="20px" fill="#000000" text-anchor="middle" style="white-space: pre;" direction="ltr">Custom error page </text><text x="102.5" y="43" font-family="Virgil, Segoe UI Emoji" font-size="20px" fill="#000000" text-anchor="middle" style="white-space: pre;" direction="ltr">is returned with 404</text></g><g stroke-linecap="round"><g transform="translate(245.43841518383806 341.782452952355) rotate(0 50.826211660899844 3.8782932074473138)"><path d="M-0.63 -1.37 C1.67 -0.25, 7.71 3.46, 13.71 6.32 C19.71 9.19, 28.13 14.21, 35.37 15.81 C42.61 17.41, 49.42 17.63, 57.16 15.94 C64.9 14.25, 74.47 9.7, 81.82 5.68 C89.17 1.66, 98.04 -5.88, 101.26 -8.21 M1.24 0.69 C3.9 2.02, 10.31 5.18, 15.86 7.82 C21.41 10.46, 27.54 15.52, 34.55 16.53 C41.56 17.53, 49.76 15.66, 57.92 13.85 C66.08 12.05, 76.11 9.56, 83.51 5.69 C90.9 1.82, 99.32 -6.78, 102.28 -9.35" stroke="#000000" stroke-width="1" fill="none"></path></g></g></svg>